{
  "accessors": [
    {
      "bufferView": 2,
      "componentType": 5126,
      "count": 394,
      "max": [
        3.76898455619812,
        14.752983093261719,
        0.050902072340250015
      ],
      "min": [
        -3.580737829208374,
        -14.984214782714844,
        -0.050902072340250015
      ],
      "type": "VEC3"
    },
    {
      "bufferView": 2,
      "byteOffset": 4728,
      "componentType": 5126,
      "count": 394,
      "max": [
        1.0,
        0.9999974370002747,
        1.0
      ],
      "min": [
        -1.0,
        -0.9999974370002747,
        -1.0
      ],
      "type": "VEC3"
    },
    {
      "bufferView": 1,
      "componentType": 5126,
      "count": 394,
      "max": [
        0.9130656719207764,
        0.9725363254547119
      ],
      "min": [
        0.10786604881286621,
        0.02746403217315674
      ],
      "type": "VEC2"
    },
    {
      "bufferView": 0,
      "componentType": 5125,
      "count": 1176,
      "type": "SCALAR"
    },
    {
      "bufferView": 2,
      "byteOffset": 9456,
      "componentType": 5126,
      "count": 268,
      "max": [
        2.9252448081970215,
        9.846633911132813,
        2.683464765548706
      ],
      "min": [
        -0.5025300979614258,
        -1.5560636520385742,
        -6.640371799468994
      ],
      "type": "VEC3"
    },
    {
      "bufferView": 2,
      "byteOffset": 12672,
      "componentType": 5126,
      "count": 268,
      "max": [
        0.9997517466545105,
        1.0,
        0.9997385740280151
      ],
      "min": [
        -0.9997518658638,
        -1.0,
        -0.9997385740280151
      ],
      "type": "VEC3"
    },
    {
      "bufferView": 1,
      "byteOffset": 3152,
      "componentType": 5126,
      "count": 268,
      "max": [
        0.875,
        2.0
      ],
      "min": [
        0.125,
        0.25
      ],
      "type": "VEC2"
    },
    {
      "bufferView": 0,
      "byteOffset": 4704,
      "componentType": 5125,
      "count": 684,
      "type": "SCALAR"
    },
    {
      "bufferView": 2,
      "byteOffset": 15888,
      "componentType": 5126,
      "count": 268,
      "max": [
        0.7668099403381348,
        9.8377685546875,
        1.7109031677246094
      ],
      "min": [
        -3.0913829803466797,
        -1.5560636520385742,
        -7.551621913909912
      ],
      "type": "VEC3"
    },
    {
      "bufferView": 2,
      "byteOffset": 19104,
      "componentType": 5126,
      "count": 268,
      "max": [
        0.9997983574867249,
        1.0,
        0.9997385740280151
      ],
      "min": [
        -0.9997983574867249,
        -1.0,
        -0.9997385740280151
      ],
      "type": "VEC3"
    },
    {
      "bufferView": 1,
      "byteOffset": 5296,
      "componentType": 5126,
      "count": 268,
      "max": [
        0.875,
        2.0
      ],
      "min": [
        0.125,
        0.25
      ],
      "type": "VEC2"
    },
    {
      "bufferView": 0,
      "byteOffset": 7440,
      "componentType": 5125,
      "count": 684,
      "type": "SCALAR"
    }
  ],
  "asset": {
    "extras": {
      "author": "masterplaneye (https://sketchfab.com/masterplaneye)",
      "license": "CC-BY-4.0 (http://creativecommons.org/licenses/by/4.0/)",
      "source": "https://sketchfab.com/3d-models/bookmark-9285485108fa484190813972d3a386c6",
      "title": "Bookmark"
    },
    "generator": "Sketchfab-12.67.0",
    "version": "2.0"
  },
  "bufferViews": [
    {
      "buffer": 0,
      "byteLength": 10176,
      "name": "floatBufferViews",
      "target": 34963
    },
    {
      "buffer": 0,
      "byteLength": 7440,
      "byteOffset": 10176,
      "byteStride": 8,
      "name": "floatBufferViews",
      "target": 34962
    },
    {
      "buffer": 0,
      "byteLength": 22320,
      "byteOffset": 17616,
      "byteStride": 12,
      "name": "floatBufferViews",
      "target": 34962
    }
  ],
  "buffers": [
    {
      "byteLength": 39936,
      "uri": "scene.bin"
    }
  ],
  "images": [
    {
      "uri": "textures/material_0_baseColor.png"
    }
  ],
  "materials": [
    {
      "alphaMode": "BLEND",
      "name": "material_0",
      "pbrMetallicRoughness": {
        "baseColorTexture": {
          "index": 0
        },
        "metallicFactor": 0.0
      }
    },
    {
      "name": "material_1",
      "pbrMetallicRoughness": {
        "baseColorFactor": [
          0.205945,
          0.205945,
          0.205945,
          1.0
        ],
        "metallicFactor": 0.0
      }
    }
  ],
  "meshes": [
    {
      "name": "Object_0",
      "primitives": [
        {
          "attributes": {
            "NORMAL": 1,
            "POSITION": 0,
            "TEXCOORD_0": 2
          },
          "indices": 3,
          "material": 0,
          "mode": 4
        }
      ]
    },
    {
      "name": "Object_1",
      "primitives": [
        {
          "attributes": {
            "NORMAL": 5,
            "POSITION": 4,
            "TEXCOORD_0": 6
          },
          "indices": 7,
          "material": 1,
          "mode": 4
        }
      ]
    },
    {
      "name": "Object_2",
      "primitives": [
        {
          "attributes": {
            "NORMAL": 9,
            "POSITION": 8,
            "TEXCOORD_0": 10
          },
          "indices": 11,
          "material": 1,
          "mode": 4
        }
      ]
    }
  ],
  "nodes": [
    {
      "children": [
        1
      ],
      "matrix": [
        1.0,
        0.0,
        0.0,
        0.0,
        0.0,
        2.220446049250313e-16,
        -1.0,
        0.0,
        0.0,
        1.0,
        2.220446049250313e-16,
        0.0,
        0.0,
        0.0,
        0.0,
        1.0
      ],
      "name": "Sketchfab_model"
    },
    {
      "children": [
        2
      ],
      "name": "root"
    },
    {
      "children": [
        3,
        5,
        7
      ],
      "matrix": [
        1.0,
        0.0,
        0.0,
        0.0,
        0.0,
        2.220446049250313e-16,
        1.0,
        0.0,
        0.0,
        -1.0,
        2.220446049250313e-16,
        0.0,
        0.0,
        0.0,
        0.0,
        1.0
      ],
      "name": "GLTF_SceneRootNode"
    },
    {
      "children": [
        4
      ],
      "name": "_0"
    },
    {
      "mesh": 0,
      "name": "Object_4"
    },
    {
      "children": [
        6
      ],
      "matrix": [
        0.3798581938326325,
        0.05549706469582267,
        -0.015903101232717348,
        0.0,
        -0.14472610784495582,
        0.9894638093152808,
        -0.003965320080883962,
        0.0,
        0.0024412605292604577,
        0.0005991411276691468,
        0.06040226841213553,
        0.0,
        -0.3334600329399109,
        14.17022705078125,
        0.14652502536773682,
        1.0
      ],
      "name": "_1"
    },
    {
      "mesh": 1,
      "name": "Object_6"
    },
    {
      "children": [
        8
      ],
      "matrix": [
        0.37834330741326516,
        -0.0629097929693276,
        -0.022886238760618297,
        0.0,
        0.1640868924402331,
        0.9864453265467157,
        0.0010533107095496421,
        0.0,
        0.003541765363976821,
        -0.0006535806701897343,
        0.060347174605016464,
        0.0,
        0.5703783631324768,
        14.17022705078125,
        0.14652502536773682,
        1.0
      ],
      "name": "_2"
    },
    {
      "mesh": 2,
      "name": "Object_8"
    }
  ],
  "samplers": [
    {
      "magFilter": 9729,
      "minFilter": 9987,
      "wrapS": 10497,
      "wrapT": 10497
    }
  ],
  "scene": 0,
  "scenes": [
    {
      "name": "Sketchfab_Scene",
      "nodes": [
        0
      ]
    }
  ],
  "textures": [
    {
      "sampler": 0,
      "source": 0
    }
  ]
}
