{
  "accessors": [
    {
      "bufferView": 2,
      "componentType": 5126,
      "count": 2107,
      "max": [
        0.11209205538034439,
        1.0527714490890503,
        0.3776439428329468
      ],
      "min": [
        -0.04329181835055351,
        0.871818482875824,
        0.2764247953891754
      ],
      "type": "VEC3"
    },
    {
      "bufferView": 2,
      "byteOffset": 25284,
      "componentType": 5126,
      "count": 2107,
      "max": [
        0.9762527942657471,
        0.9994152188301086,
        0.9765610098838806
      ],
      "min": [
        -0.9762527346611023,
        -0.9993687272071838,
        -0.9765608906745911
      ],
      "type": "VEC3"
    },
    {
      "bufferView": 3,
      "componentType": 5126,
      "count": 2107,
      "max": [
        0.05098039284348488,
        0.0,
        0.0784313753247261,
        1.0
      ],
      "min": [
        0.05098039284348488,
        0.0,
        0.0784313753247261,
        1.0
      ],
      "type": "VEC4"
    },
    {
      "bufferView": 1,
      "componentType": 5126,
      "count": 2107,
      "max": [
        8.836572647094727,
        1.0
      ],
      "min": [
        0.11791759729385376,
        0.0
      ],
      "type": "VEC2"
    },
    {
      "bufferView": 0,
      "componentType": 5125,
      "count": 10896,
      "type": "SCALAR"
    },
    {
      "bufferView": 2,
      "byteOffset": 50568,
      "componentType": 5126,
      "count": 65532,
      "max": [
        0.6639510989189148,
        1.9442147016525269,
        0.8240338563919067
      ],
      "min": [
        -0.4788528382778168,
        0.264481782913208,
        -0.03302713856101036
      ],
      "type": "VEC3"
    },
    {
      "bufferView": 2,
      "byteOffset": 836952,
      "componentType": 5126,
      "count": 65532,
      "max": [
        0.999992311000824,
        0.9977068901062012,
        0.9999368190765381
      ],
      "min": [
        -0.999992311000824,
        -0.9977068901062012,
        -0.9999368190765381
      ],
      "type": "VEC3"
    },
    {
      "bufferView": 3,
      "byteOffset": 33712,
      "componentType": 5126,
      "count": 65532,
      "max": [
        0.9333333373069763,
        0.8235294222831726,
        0.7529411911964417,
        1.0
      ],
      "min": [
        0.0,
        0.007843137718737125,
        0.04313725605607033,
        1.0
      ],
      "type": "VEC4"
    },
    {
      "bufferView": 1,
      "byteOffset": 16856,
      "componentType": 5126,
      "count": 65532,
      "max": [
        1.0,
        1.0
      ],
      "min": [
        0.0,
        0.0
      ],
      "type": "VEC2"
    },
    {
      "bufferView": 1,
      "byteOffset": 541112,
      "componentType": 5126,
      "count": 65532,
      "max": [
        1.0,
        1.0
      ],
      "min": [
        0.0,
        0.0
      ],
      "type": "VEC2"
    },
    {
      "bufferView": 0,
      "byteOffset": 43584,
      "componentType": 5125,
      "count": 147600,
      "type": "SCALAR"
    },
    {
      "bufferView": 2,
      "byteOffset": 1623336,
      "componentType": 5126,
      "count": 65532,
      "max": [
        0.6365272998809814,
        1.5589144229888916,
        0.685706615447998
      ],
      "min": [
        -0.4678897559642792,
        0.06668475270271301,
        -0.03870543837547302
      ],
      "type": "VEC3"
    },
    {
      "bufferView": 2,
      "byteOffset": 2409720,
      "componentType": 5126,
      "count": 65532,
      "max": [
        0.9448904395103455,
        0.5758476257324219,
        0.9912101030349731
      ],
      "min": [
        -0.9448904395103455,
        -0.5758476257324219,
        -0.9912101030349731
      ],
      "type": "VEC3"
    },
    {
      "bufferView": 3,
      "byteOffset": 1082224,
      "componentType": 5126,
      "count": 65532,
      "max": [
        0.9333333373069763,
        0.8745098114013672,
        0.7333333492279053,
        1.0
      ],
      "min": [
        0.05098039284348488,
        0.0,
        0.0470588244497776,
        1.0
      ],
      "type": "VEC4"
    },
    {
      "bufferView": 1,
      "byteOffset": 1065368,
      "componentType": 5126,
      "count": 65532,
      "max": [
        1.0,
        1.0
      ],
      "min": [
        0.0,
        0.0
      ],
      "type": "VEC2"
    },
    {
      "bufferView": 1,
      "byteOffset": 1589624,
      "componentType": 5126,
      "count": 65532,
      "max": [
        1.0,
        1.0
      ],
      "min": [
        0.0,
        0.0
      ],
      "type": "VEC2"
    },
    {
      "bufferView": 0,
      "byteOffset": 633984,
      "componentType": 5125,
      "count": 148452,
      "type": "SCALAR"
    },
    {
      "bufferView": 2,
      "byteOffset": 3196104,
      "componentType": 5126,
      "count": 23564,
      "max": [
        0.1817699521780014,
        1.2661017179489136,
        0.4090593457221985
      ],
      "min": [
        -0.08743518590927124,
        0.6569651961326599,
        0.23700037598609924
      ],
      "type": "VEC3"
    },
    {
      "bufferView": 2,
      "byteOffset": 3478872,
      "componentType": 5126,
      "count": 23564,
      "max": [
        0.5376279354095459,
        0.03417464718222618,
        0.8427098989486694
      ],
      "min": [
        -0.5376279354095459,
        -0.03417464718222618,
        -0.8427098989486694
      ],
      "type": "VEC3"
    },
    {
      "bufferView": 3,
      "byteOffset": 2130736,
      "componentType": 5126,
      "count": 23564,
      "max": [
        0.9333333373069763,
        0.8745098114013672,
        0.7333333492279053,
        1.0
      ],
      "min": [
        0.10196078568696976,
        0.40784314274787903,
        0.0470588244497776,
        1.0
      ],
      "type": "VEC4"
    },
    {
      "bufferView": 1,
      "byteOffset": 2113880,
      "componentType": 5126,
      "count": 23564,
      "max": [
        1.0,
        1.0
      ],
      "min": [
        0.0,
        0.0
      ],
      "type": "VEC2"
    },
    {
      "bufferView": 1,
      "byteOffset": 2302392,
      "componentType": 5126,
      "count": 23564,
      "max": [
        1.0,
        1.0
      ],
      "min": [
        0.0,
        0.0
      ],
      "type": "VEC2"
    },
    {
      "bufferView": 0,
      "byteOffset": 1227792,
      "componentType": 5125,
      "count": 53028,
      "type": "SCALAR"
    },
    {
      "bufferView": 2,
      "byteOffset": 3761640,
      "componentType": 5126,
      "count": 50966,
      "max": [
        0.6326555609703064,
        1.795908808708191,
        0.689509391784668
      ],
      "min": [
        -0.48030540347099304,
        0.10662980377674103,
        -0.04610377550125122
      ],
      "type": "VEC3"
    },
    {
      "bufferView": 2,
      "byteOffset": 4373232,
      "componentType": 5126,
      "count": 50966,
      "max": [
        0.5376742482185364,
        0.034220140427351,
        0.842844545841217
      ],
      "min": [
        -0.5376614332199097,
        -0.11683811247348785,
        -0.9083307385444641
      ],
      "type": "VEC3"
    },
    {
      "bufferView": 3,
      "byteOffset": 2507760,
      "componentType": 5126,
      "count": 50966,
      "max": [
        0.0784313753247261,
        0.07450980693101883,
        0.0784313753247261,
        1.0
      ],
      "min": [
        0.0,
        0.0,
        0.0,
        1.0
      ],
      "type": "VEC4"
    },
    {
      "bufferView": 1,
      "byteOffset": 2490904,
      "componentType": 5126,
      "count": 50966,
      "max": [
        1.0,
        1.0
      ],
      "min": [
        0.0,
        0.0
      ],
      "type": "VEC2"
    },
    {
      "bufferView": 1,
      "byteOffset": 2898632,
      "componentType": 5126,
      "count": 50966,
      "max": [
        1.0,
        1.0
      ],
      "min": [
        0.0,
        0.0
      ],
      "type": "VEC2"
    },
    {
      "bufferView": 0,
      "byteOffset": 1439904,
      "componentType": 5125,
      "count": 115464,
      "type": "SCALAR"
    },
    {
      "bufferView": 2,
      "byteOffset": 4984824,
      "componentType": 5126,
      "count": 9344,
      "max": [
        0.545987606048584,
        1.0538982152938843,
        0.6293110251426697
      ],
      "min": [
        -0.46766695380210876,
        0.07823070138692856,
        -0.04129191115498543
      ],
      "type": "VEC3"
    },
    {
      "bufferView": 2,
      "byteOffset": 5096952,
      "componentType": 5126,
      "count": 9344,
      "max": [
        0.5376647710800171,
        0.03428925201296806,
        0.8428775668144226
      ],
      "min": [
        -0.5376647710800171,
        -0.03428925201296806,
        -0.8428775668144226
      ],
      "type": "VEC3"
    },
    {
      "bufferView": 3,
      "byteOffset": 3323216,
      "componentType": 5126,
      "count": 9344,
      "max": [
        0.125490203499794,
        0.9686274528503418,
        0.572549045085907,
        1.0
      ],
      "min": [
        0.125490203499794,
        0.9686274528503418,
        0.572549045085907,
        1.0
      ],
      "type": "VEC4"
    },
    {
      "bufferView": 1,
      "byteOffset": 3306360,
      "componentType": 5126,
      "count": 9344,
      "max": [
        1.0,
        1.0
      ],
      "min": [
        0.0,
        0.0
      ],
      "type": "VEC2"
    },
    {
      "bufferView": 1,
      "byteOffset": 3381112,
      "componentType": 5126,
      "count": 9344,
      "max": [
        1.0,
        1.0
      ],
      "min": [
        0.0,
        0.0
      ],
      "type": "VEC2"
    },
    {
      "bufferView": 0,
      "byteOffset": 1901760,
      "componentType": 5125,
      "count": 14016,
      "type": "SCALAR"
    },
    {
      "bufferView": 2,
      "byteOffset": 5209080,
      "componentType": 5126,
      "count": 15978,
      "max": [
        0.8572670221328735,
        2.065419912338257,
        1.0069001913070679
      ],
      "min": [
        -0.5827172994613647,
        0.11777372658252716,
        -0.27105578780174255
      ],
      "type": "VEC3"
    },
    {
      "bufferView": 2,
      "byteOffset": 5400816,
      "componentType": 5126,
      "count": 15978,
      "max": [
        0.9981420040130615,
        0.942684531211853,
        0.9991815090179443
      ],
      "min": [
        -0.9981788396835327,
        -0.9984904527664185,
        -0.9987587928771973
      ],
      "type": "VEC3"
    },
    {
      "bufferView": 3,
      "byteOffset": 3472720,
      "componentType": 5126,
      "count": 15978,
      "max": [
        0.0,
        0.40392157435417175,
        0.019607843831181526,
        1.0
      ],
      "min": [
        0.0,
        0.40392157435417175,
        0.019607843831181526,
        1.0
      ],
      "type": "VEC4"
    },
    {
      "bufferView": 1,
      "byteOffset": 3455864,
      "componentType": 5126,
      "count": 15978,
      "max": [
        1.0,
        1.0
      ],
      "min": [
        0.0,
        0.0
      ],
      "type": "VEC2"
    },
    {
      "bufferView": 1,
      "byteOffset": 3583688,
      "componentType": 5126,
      "count": 15978,
      "max": [
        1.0,
        1.0
      ],
      "min": [
        0.0,
        0.0
      ],
      "type": "VEC2"
    },
    {
      "bufferView": 0,
      "byteOffset": 1957824,
      "componentType": 5125,
      "count": 36678,
      "type": "SCALAR"
    }
  ],
  "asset": {
    "extras": {
      "author": "kabage (https://sketchfab.com/kabage)",
      "license": "CC-BY-4.0 (http://creativecommons.org/licenses/by/4.0/)",
      "source": "https://sketchfab.com/3d-models/abstract-peacock-feather-09a120e1523948ce90c90f520582780a",
      "title": "Abstract Peacock Feather"
    },
    "generator": "Sketchfab-12.66.0",
    "version": "2.0"
  },
  "bufferViews": [
    {
      "buffer": 0,
      "byteLength": 2104536,
      "name": "floatBufferViews",
      "target": 34963
    },
    {
      "buffer": 0,
      "byteLength": 3711512,
      "byteOffset": 2104536,
      "byteStride": 8,
      "name": "floatBufferViews",
      "target": 34962
    },
    {
      "buffer": 0,
      "byteLength": 5592552,
      "byteOffset": 5816048,
      "byteStride": 12,
      "name": "floatBufferViews",
      "target": 34962
    },
    {
      "buffer": 0,
      "byteLength": 3728368,
      "byteOffset": 11408600,
      "byteStride": 16,
      "name": "floatBufferViews",
      "target": 34962
    }
  ],
  "buffers": [
    {
      "byteLength": 15136968,
      "uri": "scene.bin"
    }
  ],
  "extensionsRequired": [
    "KHR_materials_pbrSpecularGlossiness"
  ],
  "extensionsUsed": [
    "KHR_materials_pbrSpecularGlossiness"
  ],
  "images": [
    {
      "uri": "textures/material_diffuse.png"
    },
    {
      "uri": "textures/SoftHighlighter_diffuse.png"
    },
    {
      "uri": "textures/CoarseBristles_diffuse.png"
    },
    {
      "uri": "textures/VelvetInk_diffuse.png"
    }
  ],
  "materials": [
    {
      "alphaMode": "BLEND",
      "doubleSided": true,
      "emissiveFactor": [
        1.0,
        1.0,
        1.0
      ],
      "extensions": {
        "KHR_materials_pbrSpecularGlossiness": {
          "diffuseFactor": [
            1.0,
            1.0,
            1.0,
            0.0
          ],
          "glossinessFactor": 0.0,
          "specularFactor": [
            0.0,
            0.0,
            0.0
          ]
        }
      },
      "name": "Wire"
    },
    {
      "alphaMode": "BLEND",
      "doubleSided": true,
      "emissiveFactor": [
        1.0,
        1.0,
        1.0
      ],
      "extensions": {
        "KHR_materials_pbrSpecularGlossiness": {
          "diffuseFactor": [
            0.03806818181818182,
            0.03806818181818182,
            0.03806818181818182,
            0.07102272727272733
          ],
          "diffuseTexture": {
            "index": 0
          },
          "glossinessFactor": 0.0,
          "specularFactor": [
            0.0,
            0.0,
            0.0
          ]
        }
      },
      "name": "material"
    },
    {
      "alphaMode": "BLEND",
      "doubleSided": true,
      "emissiveFactor": [
        1.0,
        1.0,
        1.0
      ],
      "extensions": {
        "KHR_materials_pbrSpecularGlossiness": {
          "diffuseFactor": [
            1.0,
            1.0,
            1.0,
            1.0
          ],
          "diffuseTexture": {
            "index": 1
          },
          "glossinessFactor": 0.0,
          "specularFactor": [
            0.0,
            0.0,
            0.0
          ]
        }
      },
      "name": "SoftHighlighter"
    },
    {
      "alphaCutoff": 0.3410984848484848,
      "alphaMode": "MASK",
      "doubleSided": true,
      "emissiveFactor": [
        1.0,
        1.0,
        1.0
      ],
      "extensions": {
        "KHR_materials_pbrSpecularGlossiness": {
          "diffuseFactor": [
            1.0,
            1.0,
            1.0,
            1.0
          ],
          "diffuseTexture": {
            "index": 2
          },
          "glossinessFactor": 0.0,
          "specularFactor": [
            0.0,
            0.0,
            0.0
          ]
        }
      },
      "name": "CoarseBristles"
    },
    {
      "alphaMode": "BLEND",
      "doubleSided": true,
      "emissiveFactor": [
        1.0,
        1.0,
        1.0
      ],
      "extensions": {
        "KHR_materials_pbrSpecularGlossiness": {
          "diffuseFactor": [
            1.0,
            1.0,
            1.0,
            0.07102272727272733
          ],
          "diffuseTexture": {
            "index": 3
          },
          "glossinessFactor": 0.0,
          "specularFactor": [
            0.0,
            0.0,
            0.0
          ]
        }
      },
      "name": "VelvetInk"
    }
  ],
  "meshes": [
    {
      "name": "Wire_geo_Wire_0",
      "primitives": [
        {
          "attributes": {
            "COLOR_0": 2,
            "NORMAL": 1,
            "POSITION": 0,
            "TEXCOORD_0": 3
          },
          "indices": 4,
          "material": 0,
          "mode": 4
        }
      ]
    },
    {
      "name": "Ink_geo_Ink_0",
      "primitives": [
        {
          "attributes": {
            "COLOR_0": 7,
            "NORMAL": 6,
            "POSITION": 5,
            "TEXCOORD_0": 8,
            "TEXCOORD_1": 9
          },
          "indices": 10,
          "material": 1,
          "mode": 4
        }
      ]
    },
    {
      "name": "Ink_geo_Ink_0",
      "primitives": [
        {
          "attributes": {
            "COLOR_0": 13,
            "NORMAL": 12,
            "POSITION": 11,
            "TEXCOORD_0": 14,
            "TEXCOORD_1": 15
          },
          "indices": 16,
          "material": 1,
          "mode": 4
        }
      ]
    },
    {
      "name": "Ink_geo_Ink_0",
      "primitives": [
        {
          "attributes": {
            "COLOR_0": 19,
            "NORMAL": 18,
            "POSITION": 17,
            "TEXCOORD_0": 20,
            "TEXCOORD_1": 21
          },
          "indices": 22,
          "material": 1,
          "mode": 4
        }
      ]
    },
    {
      "name": "SoftHighlighter_geo_SoftHighlighter_0",
      "primitives": [
        {
          "attributes": {
            "COLOR_0": 25,
            "NORMAL": 24,
            "POSITION": 23,
            "TEXCOORD_0": 26,
            "TEXCOORD_1": 27
          },
          "indices": 28,
          "material": 2,
          "mode": 4
        }
      ]
    },
    {
      "name": "CoarseBristles_geo_CoarseBristles_0",
      "primitives": [
        {
          "attributes": {
            "COLOR_0": 31,
            "NORMAL": 30,
            "POSITION": 29,
            "TEXCOORD_0": 32,
            "TEXCOORD_1": 33
          },
          "indices": 34,
          "material": 3,
          "mode": 4
        }
      ]
    },
    {
      "name": "VelvetInk_geo_VelvetInk_0",
      "primitives": [
        {
          "attributes": {
            "COLOR_0": 37,
            "NORMAL": 36,
            "POSITION": 35,
            "TEXCOORD_0": 38,
            "TEXCOORD_1": 39
          },
          "indices": 40,
          "material": 4,
          "mode": 4
        }
      ]
    }
  ],
  "nodes": [
    {
      "children": [
        1
      ],
      "matrix": [
        1.0,
        0.0,
        0.0,
        0.0,
        0.0,
        2.220446049250313e-16,
        -1.0,
        0.0,
        0.0,
        1.0,
        2.220446049250313e-16,
        0.0,
        0.0,
        0.0,
        0.0,
        1.0
      ],
      "name": "Sketchfab_model"
    },
    {
      "children": [
        2
      ],
      "matrix": [
        1.0,
        0.0,
        0.0,
        0.0,
        0.0,
        0.0,
        1.0,
        0.0,
        0.0,
        -1.0,
        0.0,
        0.0,
        0.0,
        0.0,
        0.0,
        1.0
      ],
      "name": "Untitled_86.fbx"
    },
    {
      "children": [
        3,
        5,
        9,
        11,
        13
      ],
      "name": "RootNode"
    },
    {
      "children": [
        4
      ],
      "name": "Wire_geo"
    },
    {
      "mesh": 0,
      "name": "Wire_geo_Wire_0"
    },
    {
      "children": [
        6,
        7,
        8
      ],
      "name": "Ink_geo"
    },
    {
      "mesh": 1,
      "name": "Ink_geo_Ink_0"
    },
    {
      "mesh": 2,
      "name": "Ink_geo_Ink_0"
    },
    {
      "mesh": 3,
      "name": "Ink_geo_Ink_0"
    },
    {
      "children": [
        10
      ],
      "name": "SoftHighlighter_geo"
    },
    {
      "mesh": 4,
      "name": "SoftHighlighter_geo_SoftHighlighter_0"
    },
    {
      "children": [
        12
      ],
      "name": "CoarseBristles_geo"
    },
    {
      "mesh": 5,
      "name": "CoarseBristles_geo_CoarseBristles_0"
    },
    {
      "children": [
        14
      ],
      "name": "VelvetInk_geo"
    },
    {
      "mesh": 6,
      "name": "VelvetInk_geo_VelvetInk_0"
    }
  ],
  "samplers": [
    {
      "magFilter": 9729,
      "minFilter": 9987,
      "wrapS": 10497,
      "wrapT": 10497
    }
  ],
  "scene": 0,
  "scenes": [
    {
      "name": "Sketchfab_Scene",
      "nodes": [
        0
      ]
    }
  ],
  "textures": [
    {
      "sampler": 0,
      "source": 0
    },
    {
      "sampler": 0,
      "source": 1
    },
    {
      "sampler": 0,
      "source": 2
    },
    {
      "sampler": 0,
      "source": 3
    }
  ]
}
