{
  "accessors": [
    {
      "bufferView": 2,
      "componentType": 5126,
      "count": 359,
      "max": [
        -33.5457649230957,
        0.48256033658981323,
        19.992107391357422
      ],
      "min": [
        -53.559932708740234,
        -0.05470000207424164,
        -0.0069684190675616264
      ],
      "type": "VEC3"
    },
    {
      "bufferView": 2,
      "byteOffset": 4308,
      "componentType": 5126,
      "count": 359,
      "max": [
        1.0,
        1.0,
        1.0
      ],
      "min": [
        -1.0,
        -1.0,
        -0.9999998211860657
      ],
      "type": "VEC3"
    },
    {
      "bufferView": 3,
      "componentType": 5126,
      "count": 359,
      "max": [
        0.16216693818569183,
        1.0,
        1.0,
        1.0
      ],
      "min": [
        -1.0,
        -1.0,
        -1.0,
        1.0
      ],
      "type": "VEC4"
    },
    {
      "bufferView": 1,
      "componentType": 5126,
      "count": 359,
      "max": [
        0.999500036239624,
        0.9979541301727295
      ],
      "min": [
        0.0005000000237487257,
        0.0005000000237487257
      ],
      "type": "VEC2"
    },
    {
      "bufferView": 0,
      "componentType": 5125,
      "count": 696,
      "type": "SCALAR"
    },
    {
      "bufferView": 2,
      "byteOffset": 8616,
      "componentType": 5126,
      "count": 24,
      "max": [
        9.5,
        5.511837482452393,
        0.009999999776482582
      ],
      "min": [
        -9.508966445922852,
        -5.5,
        -2.2351741790771484e-08
      ],
      "type": "VEC3"
    },
    {
      "bufferView": 2,
      "byteOffset": 8904,
      "componentType": 5126,
      "count": 24,
      "max": [
        0.9999997615814209,
        0.9999992251396179,
        1.0
      ],
      "min": [
        -0.9999997615814209,
        -1.0,
        -1.0
      ],
      "type": "VEC3"
    },
    {
      "bufferView": 3,
      "byteOffset": 5744,
      "componentType": 5126,
      "count": 24,
      "max": [
        1.0,
        0.9999996423721313,
        1.0,
        1.0
      ],
      "min": [
        -0.0008156407275237143,
        -0.9999996423721313,
        -1.0,
        -1.0
      ],
      "type": "VEC4"
    },
    {
      "bufferView": 1,
      "byteOffset": 2872,
      "componentType": 5126,
      "count": 24,
      "max": [
        0.9645349979400635,
        0.9821966886520386
      ],
      "min": [
        0.035464994609355927,
        0.035407327115535736
      ],
      "type": "VEC2"
    },
    {
      "bufferView": 0,
      "byteOffset": 2784,
      "componentType": 5125,
      "count": 36,
      "type": "SCALAR"
    }
  ],
  "asset": {
    "extras": {
      "author": "Rodrigo E. Maranzana (https://sketchfab.com/ParzivalCG)",
      "license": "CC-BY-4.0 (http://creativecommons.org/licenses/by/4.0/)",
      "source": "https://sketchfab.com/3d-models/free-blank-greeting-card-with-envelope-e254e330d9d0439da7367587ddb4d085",
      "title": "[FREE] Blank Greeting Card with Envelope"
    },
    "generator": "Sketchfab-12.68.0",
    "version": "2.0"
  },
  "bufferViews": [
    {
      "buffer": 0,
      "byteLength": 2928,
      "name": "floatBufferViews",
      "target": 34963
    },
    {
      "buffer": 0,
      "byteLength": 3064,
      "byteOffset": 2928,
      "byteStride": 8,
      "name": "floatBufferViews",
      "target": 34962
    },
    {
      "buffer": 0,
      "byteLength": 9192,
      "byteOffset": 5992,
      "byteStride": 12,
      "name": "floatBufferViews",
      "target": 34962
    },
    {
      "buffer": 0,
      "byteLength": 6128,
      "byteOffset": 15184,
      "byteStride": 16,
      "name": "floatBufferViews",
      "target": 34962
    }
  ],
  "buffers": [
    {
      "byteLength": 21312,
      "uri": "scene.bin"
    }
  ],
  "images": [
    {
      "uri": "textures/LetterFREE__0_baseColor.jpeg"
    },
    {
      "uri": "textures/LetterFREE__0_metallicRoughness.png"
    },
    {
      "uri": "textures/LetterFREE__0_normal.png"
    },
    {
      "uri": "textures/wire_086086086_baseColor.jpeg"
    },
    {
      "uri": "textures/wire_086086086_metallicRoughness.png"
    },
    {
      "uri": "textures/wire_086086086_normal.png"
    }
  ],
  "materials": [
    {
      "doubleSided": true,
      "name": "LetterFREE__0",
      "normalTexture": {
        "index": 2
      },
      "pbrMetallicRoughness": {
        "baseColorTexture": {
          "index": 0
        },
        "metallicRoughnessTexture": {
          "index": 1
        }
      }
    },
    {
      "doubleSided": true,
      "name": "wire_086086086",
      "normalTexture": {
        "index": 5
      },
      "occlusionTexture": {
        "index": 4
      },
      "pbrMetallicRoughness": {
        "baseColorTexture": {
          "index": 3
        },
        "metallicRoughnessTexture": {
          "index": 4
        }
      }
    }
  ],
  "meshes": [
    {
      "name": "EnvelopeFREE_wire_086086086_0",
      "primitives": [
        {
          "attributes": {
            "NORMAL": 1,
            "POSITION": 0,
            "TANGENT": 2,
            "TEXCOORD_0": 3
          },
          "indices": 4,
          "material": 1,
          "mode": 4
        }
      ]
    },
    {
      "name": "LetterFREE__0",
      "primitives": [
        {
          "attributes": {
            "NORMAL": 6,
            "POSITION": 5,
            "TANGENT": 7,
            "TEXCOORD_0": 8
          },
          "indices": 9,
          "material": 0,
          "mode": 4
        }
      ]
    }
  ],
  "nodes": [
    {
      "children": [
        1
      ],
      "matrix": [
        1.0,
        0.0,
        0.0,
        0.0,
        0.0,
        2.220446049250313e-16,
        -1.0,
        0.0,
        0.0,
        1.0,
        2.220446049250313e-16,
        0.0,
        0.0,
        0.0,
        0.0,
        1.0
      ],
      "name": "Sketchfab_model"
    },
    {
      "children": [
        2
      ],
      "matrix": [
        0.009999999776482582,
        0.0,
        0.0,
        0.0,
        0.0,
        0.0,
        0.009999999776482582,
        0.0,
        0.0,
        -0.009999999776482582,
        0.0,
        0.0,
        0.0,
        0.0,
        0.0,
        1.0
      ],
      "name": "72af985e602e4bb0b9d823ee1480b6e9.fbx"
    },
    {
      "children": [
        3,
        6
      ],
      "name": "RootNode"
    },
    {
      "children": [
        4
      ],
      "matrix": [
        0.9999038097774858,
        8.673617379884035e-19,
        -0.013869794247555509,
        0.0,
        -0.013869794247555509,
        2.220446049250313e-16,
        -0.9999038097774857,
        0.0,
        8.673617379884035e-19,
        1.0,
        2.220446049250313e-16,
        0.0,
        -0.014978366903960705,
        0.0,
        -0.98562091588974,
        1.0
      ],
      "name": "EnvelopeFREE"
    },
    {
      "children": [
        5
      ],
      "matrix": [
        1.0,
        0.0,
        -0.0,
        0.0,
        0.0,
        1.0,
        0.0,
        0.0,
        0.0,
        0.0,
        1.0,
        0.0,
        43.55284881591797,
        -0.08494801074266434,
        0.007000000216066837,
        1.0
      ],
      "name": "Object_4"
    },
    {
      "mesh": 0,
      "name": "EnvelopeFREE_wire_086086086_0"
    },
    {
      "children": [
        7
      ],
      "matrix": [
        0.9999037982948102,
        8.493304414056664e-19,
        -0.013870622034046834,
        0.0,
        2.2598112415222965e-09,
        0.9999999999999867,
        1.6290501169524952e-07,
        0.0,
        0.01387062203404665,
        -1.6292068494293995e-07,
        0.999903798294797,
        0.0,
        -0.01395784504711628,
        11.844060897827148,
        -0.9120424389839172,
        1.0
      ],
      "name": "LetterFREE"
    },
    {
      "mesh": 1,
      "name": "LetterFREE__0"
    }
  ],
  "samplers": [
    {
      "magFilter": 9729,
      "minFilter": 9987,
      "wrapS": 10497,
      "wrapT": 10497
    }
  ],
  "scene": 0,
  "scenes": [
    {
      "name": "Sketchfab_Scene",
      "nodes": [
        0
      ]
    }
  ],
  "textures": [
    {
      "sampler": 0,
      "source": 0
    },
    {
      "sampler": 0,
      "source": 1
    },
    {
      "sampler": 0,
      "source": 2
    },
    {
      "sampler": 0,
      "source": 3
    },
    {
      "sampler": 0,
      "source": 4
    },
    {
      "sampler": 0,
      "source": 5
    }
  ]
}
